HIERARCHY
ROOT Hips
{
	OFFSET 0.00000 0.00000 0.00000
	CHANNELS 6 Xposition Yposition Zposition Zrotation Yrotation Xrotation 
	JOINT LHipJoint
	{
		OFFSET 0 0 0
		CHANNELS 3 Zrotation Yrotation Xrotation
		JOINT LeftUpLeg
		{
			OFFSET 1.85742 -1.74412 1.01653
			CHANNELS 3 Zrotation Yrotation Xrotation
			JOINT LeftLeg
			{
				OFFSET 2.54803 -7.00067 0.00000
				CHANNELS 3 Zrotation Yrotation Xrotation
				JOINT LeftFoot
				{
					OFFSET 2.51202 -6.90173 0.00000
					CHANNELS 3 Zrotation Yrotation Xrotation
					JOINT LeftToeBase
					{
						OFFSET 0.17547 -0.48209 1.64281
						CHANNELS 3 Zrotation Yrotation Xrotation
						End Site
						{
							OFFSET 0.00000 -0.00000 0.86587
						}
					}
				}
			}
		}
	}
	JOINT RHipJoint
	{
		OFFSET 0 0 0
		CHANNELS 3 Zrotation Yrotation Xrotation
		JOINT RightUpLeg
		{
			OFFSET -1.95533 -1.74413 1.01654
			CHANNELS 3 Zrotation Yrotation Xrotation
			JOINT RightLeg
			{
				OFFSET -2.49465 -6.85400 0.00000
				CHANNELS 3 Zrotation Yrotation Xrotation
				JOINT RightFoot
				{
					OFFSET -2.54783 -7.00010 0.00000
					CHANNELS 3 Zrotation Yrotation Xrotation
					JOINT RightToeBase
					{
						OFFSET -0.18513 -0.50864 1.69288
						CHANNELS 3 Zrotation Yrotation Xrotation
						End Site
						{
							OFFSET -0.00000 -0.00000 0.89242
						}
					}
				}
			}
		}
	}
	JOINT LowerBack
	{
		OFFSET 0 0 0
		CHANNELS 3 Zrotation Yrotation Xrotation
		JOINT Spine
		{
			OFFSET 0.02173 2.16290 -0.15998
			CHANNELS 3 Zrotation Yrotation Xrotation
			JOINT Spine1
			{
				OFFSET 0.00940 2.17323 -0.00467
				CHANNELS 3 Zrotation Yrotation Xrotation
				JOINT Neck
				{
					OFFSET 0 0 0
					CHANNELS 3 Zrotation Yrotation Xrotation
					JOINT Neck1
					{
						OFFSET 0.01475 1.85823 0.31113
						CHANNELS 3 Zrotation Yrotation Xrotation
						JOINT Head
						{
							OFFSET 0.01902 1.88783 -0.37187
							CHANNELS 3 Zrotation Yrotation Xrotation
							End Site
							{
								OFFSET 0.00489 1.93211 -0.16169
							}
						}
					}
				}
				JOINT LeftShoulder
				{
					OFFSET 0 0 0
					CHANNELS 3 Zrotation Yrotation Xrotation
					JOINT LeftArm
					{
						OFFSET 3.34199 1.32384 -0.07862
						CHANNELS 3 Zrotation Yrotation Xrotation
						JOINT LeftForeArm
						{
							OFFSET 5.27950 -0.00000 0.00000
							CHANNELS 3 Zrotation Yrotation Xrotation
							JOINT LeftHand
							{
								OFFSET 3.53504 -0.00000 0.00000
								CHANNELS 3 Zrotation Yrotation Xrotation
								JOINT LeftFingerBase
								{
									OFFSET 0 0 0
									CHANNELS 3 Zrotation Yrotation Xrotation
									JOINT LeftHandIndex1
									{
										OFFSET 0.66795 -0.00000 0.00000
										CHANNELS 3 Zrotation Yrotation Xrotation
										End Site
										{
											OFFSET 0.53852 -0.00000 0.00000
										}
									}
								}
								JOINT LThumb
								{
									OFFSET 0 0 0
									CHANNELS 3 Zrotation Yrotation Xrotation
									End Site
									{
										OFFSET 0.54674 -0.00000 0.54674
									}
								}
							}
						}
					}
				}
				JOINT RightShoulder
				{
					OFFSET 0 0 0
					CHANNELS 3 Zrotation Yrotation Xrotation
					JOINT RightArm
					{
						OFFSET -3.16149 1.45719 -0.50507
						CHANNELS 3 Zrotation Yrotation Xrotation
						JOINT RightForeArm
						{
							OFFSET -5.25035 -0.00000 0.00000
							CHANNELS 3 Zrotation Yrotation Xrotation
							JOINT RightHand
							{
								OFFSET -3.58884 -0.00000 0.00000
								CHANNELS 3 Zrotation Yrotation Xrotation
								JOINT RightFingerBase
								{
									OFFSET 0 0 0
									CHANNELS 3 Zrotation Yrotation Xrotation
									JOINT RightHandIndex1
									{
										OFFSET -0.77924 -0.00000 0.00000
										CHANNELS 3 Zrotation Yrotation Xrotation
										End Site
										{
											OFFSET -0.62824 -0.00000 0.00000
										}
									}
								}
								JOINT RThumb
								{
									OFFSET 0 0 0
									CHANNELS 3 Zrotation Yrotation Xrotation
									End Site
									{
										OFFSET -0.63783 -0.00000 0.63783
									}
								}
							}
						}
					}
				}
			}
		}
	}
}
MOTION
Frames: 7
Frame Time: .0083333
-9.8346 17.7207 -5.8422 -403.4180 79.8046 -381.7600 0.0000 0.0000 0.0000 -2.1265 -15.1421 -30.8603 2.4808 9.8029 28.3408 0.9705 2.5781 -19.7080 2.1098 -9.0911 -26.0808 0.0000 0.0000 0.0000 18.9619 11.5782 -18.7032 -0.0373 -1.2466 3.4276 0.0929 -6.1766 -5.4560 -0.8935 6.0249 -16.8567 -0.1275 0.5094 16.9873 -4.1992 1.0371 8.2394 -4.5418 0.8007 -0.6428 0.8696 0.3079 -13.0428 -5.1417 5.1147 42.4380 -1.4699 1.9927 18.3084 0.0000 0.0000 0.0000 -86.3763 -46.5500 62.0266 21.8204 -32.7734 -6.4883 -0.0000 -0.0000 22.2791 78.9185 45.2630 74.5853 -7.1250 0.0000 -0.0000 145.4240 -69.2484 -159.0425 0.0000 0.0000 0.0000 89.1690 9.0973 44.4968 -111.4693 58.1847 -78.4796 0.0000 -0.0000 -19.8439 -37.5916 9.5011 -7.2423 7.1250 -0.0000 -0.0000 -7.4700 -18.1124 -4.8188
-9.8321 17.7185 -5.8323 -405.6700 80.3499 -383.9160 0.0000 0.0000 0.0000 -2.0023 -15.5643 -31.1534 2.5006 9.8389 28.4567 0.9778 2.3367 -19.6595 2.0628 -8.9958 -25.7821 0.0000 0.0000 0.0000 19.0546 11.1173 -19.4419 -0.0636 -1.6270 4.4759 0.0719 -5.9774 -6.0434 -0.8380 5.8393 -16.3190 -0.0525 0.2731 16.9549 -4.0729 0.7519 8.3168 -4.3992 0.6619 -0.5679 0.7008 0.4776 -13.1238 -5.5045 5.5732 42.2717 -1.5206 2.0992 18.2759 0.0000 -0.0000 0.0000 -86.6196 -46.7424 62.0213 21.7866 -32.7350 -6.4701 -0.0000 -0.0000 22.4330 78.5294 45.5595 74.1344 -7.1250 0.0000 -0.0000 145.7358 -69.5206 -159.0452 0.0000 -0.0000 0.0000 88.8436 6.0846 43.9262 -116.8362 57.0957 -83.0142 0.0000 -0.0000 -20.2595 -36.9144 9.0323 -6.7261 7.1250 -0.0000 -0.0000 -7.0652 -18.7823 -4.4480
-9.8340 17.7142 -5.8198 -408.0310 80.6682 -386.3090 0.0000 0.0000 0.0000 -1.8296 -15.7000 -31.3434 2.5261 9.8852 28.6057 0.9937 1.9864 -19.6457 1.9846 -8.8340 -25.2774 0.0000 0.0000 0.0000 19.2948 10.7685 -19.8458 -0.0863 -1.8951 5.2159 0.0534 -5.8019 -6.4878 -0.7706 5.6053 -15.6434 -0.0523 0.0555 17.0001 -3.9293 0.4843 8.4435 -4.2001 0.5315 -0.4793 0.6027 0.6729 -13.2529 -5.7985 6.0038 42.1034 -1.5568 2.2107 18.2535 0.0000 -0.0000 0.0000 -86.4929 -46.9398 61.6816 21.8277 -32.7818 -6.4923 -0.0000 -0.0000 22.5862 78.6293 45.9738 74.3743 -7.1250 0.0000 -0.0000 146.8333 -69.3827 -159.8677 0.0000 -0.0000 0.0000 88.3068 3.9876 43.7911 -120.4292 56.1945 -86.0157 0.0000 -0.0000 -19.9943 -37.3672 8.2490 -6.2526 7.1250 -0.0000 -0.0000 -7.4884 -19.6868 -4.5669
-9.8403 17.7071 -5.8077 -410.4120 80.7835 -388.7840 0.0000 0.0000 0.0000 -1.5778 -15.6696 -31.4592 2.5523 9.9324 28.7580 1.0087 1.6590 -19.6405 1.9093 -8.6745 -24.7822 0.0000 0.0000 0.0000 19.6409 10.5305 -20.0234 -0.1024 -2.0631 5.6802 0.0406 -5.6868 -6.7803 -0.7297 5.4578 -15.2191 0.0370 -0.1412 17.0650 -3.8311 0.2563 8.5747 -4.1077 0.4246 -0.3905 0.4986 0.8058 -13.2765 -5.9273 6.2741 41.9877 -1.5460 2.2809 18.2136 -0.0000 -0.0000 0.0000 -86.0706 -47.1526 61.3140 21.8756 -32.8361 -6.5182 -0.0000 -0.0000 22.7093 79.2471 46.2564 75.2719 -7.1250 0.0000 -0.0000 148.0768 -68.8485 -161.0501 -0.0000 -0.0000 0.0000 87.6725 2.9533 44.0669 -122.5274 55.5980 -87.7532 0.0000 -0.0000 -20.1710 -36.7027 8.0818 -5.9828 7.1250 -0.0000 -0.0000 -7.0431 -19.9737 -4.2455
-9.8480 17.7034 -5.7998 -411.6390 80.8074 -390.1380 0.0000 0.0000 0.0000 -1.4650 -15.5610 -31.4977 2.5779 9.9782 28.9062 1.0147 1.4638 -19.6125 1.9572 -8.7764 -25.0983 0.0000 0.0000 0.0000 19.8420 10.3938 -20.0412 -0.1105 -2.1432 5.9016 0.0347 -5.6402 -6.9199 -0.7017 5.3544 -14.9223 0.0830 -0.2922 17.1734 -3.8518 0.0740 8.6457 -4.1262 0.3398 -0.3840 0.5387 0.9054 -13.1374 -6.0087 6.4397 41.9311 -1.5618 2.3433 18.1593 -0.0000 -0.0000 0.0000 -85.5072 -47.3144 61.0653 21.8827 -32.8442 -6.5221 -0.0000 -0.0000 22.7143 79.6062 46.1673 75.7336 -7.1250 0.0000 -0.0000 148.2020 -68.5722 -161.3228 -0.0000 -0.0000 0.0000 87.0752 3.2284 44.6729 -123.0205 55.4498 -88.1597 0.0000 -0.0000 -20.5958 -35.8752 7.8399 -5.6341 7.1250 -0.0000 -0.0000 -6.4884 -20.3649 -3.8493
-9.8596 17.7011 -5.7956 -411.3550 80.7455 -389.9940 0.0000 0.0000 0.0000 -1.5178 -15.3381 -31.4920 2.6000 10.0174 29.0332 1.0168 1.3134 -19.5684 2.0038 -8.8739 -25.4017 0.0000 0.0000 0.0000 19.8561 10.4173 -19.9695 -0.1128 -2.1656 5.9637 0.0345 -5.6234 -6.8974 -0.6831 5.2842 -14.7211 -0.0010 -0.3259 17.3385 -3.9457 0.0180 8.6524 -4.1711 0.3131 -0.4657 0.5907 0.9153 -12.9294 -6.0017 6.4361 41.9253 -1.5713 2.3552 18.0998 0.0000 -0.0000 0.0000 -85.0698 -47.3720 60.9491 21.9222 -32.8890 -6.5435 -0.0000 -0.0000 22.6381 79.3640 45.8501 75.3331 -7.1250 0.0000 -0.0000 147.2506 -68.8108 -160.5487 0.0000 -0.0000 0.0000 86.5831 4.8040 45.3789 -121.7000 55.8397 -87.0695 0.0000 -0.0000 -20.4301 -36.5585 8.6385 -6.3554 7.1250 -0.0000 -0.0000 -6.8690 -19.3102 -4.2415
-9.8759 17.6978 -5.7936 -409.8100 80.5331 -388.6190 0.0000 0.0000 0.0000 -1.6599 -14.9785 -31.4114 2.6170 10.0476 29.1309 1.0222 1.2413 -19.5885 2.0117 -8.8903 -25.4529 0.0000 0.0000 0.0000 19.7721 10.6469 -19.7947 -0.1110 -2.1483 5.9155 0.0382 -5.6260 -6.7646 -0.6927 5.3204 -14.8247 -0.2070 -0.2072 17.5357 -4.0607 0.1394 8.6464 -4.2007 0.3712 -0.5641 0.5758 0.8309 -12.7142 -5.8974 6.2773 41.9646 -1.5522 2.3089 18.0465 -0.0000 -0.0000 0.0000 -84.8610 -47.4360 60.9165 21.9865 -32.9617 -6.5785 -0.0000 -0.0000 22.5642 79.0862 45.7319 74.9294 -7.1250 0.0000 -0.0000 146.7056 -69.0509 -160.0245 -0.0000 -0.0000 0.0000 86.3454 7.3990 46.0098 -118.6897 56.6491 -84.5665 0.0000 -0.0000 -19.7482 -35.6001 6.7475 -4.8083 7.1250 -0.0000 -0.0000 -6.4220 -21.7204 -3.6116
